<?xml version="1.0" encoding="UTF-8"?>
<svg width="24" height="24" viewBox="0 0 24 24" fill="none" xmlns="http://www.w3.org/2000/svg">
  <rect width="24" height="24" rx="12" fill="#0088CC"/>
  <path d="M16.5 6.5H7.5C7.1 6.5 6.75 6.85 6.75 7.25V16.75C6.75 17.15 7.1 17.5 7.5 17.5H16.5C16.9 17.5 17.25 17.15 17.25 16.75V7.25C17.25 6.85 16.9 6.5 16.5 6.5ZM15 14.25H9C8.8 14.25 8.625 14.075 8.625 13.875V13.125C8.625 12.925 8.8 12.75 9 12.75H15C15.2 12.75 15.375 12.925 15.375 13.125V13.875C15.375 14.075 15.2 14.25 15 14.25ZM15 11.25H9C8.8 11.25 8.625 11.075 8.625 10.875V10.125C8.625 9.925 8.8 9.75 9 9.75H15C15.2 9.75 15.375 9.925 15.375 10.125V10.875C15.375 11.075 15.2 11.25 15 11.25Z" fill="white"/>
</svg>