<?xml version="1.0" encoding="UTF-8" standalone="no"?>
<svg xmlns="http://www.w3.org/2000/svg" width="256px" height="256px" viewBox="0 0 256 346">
    <g>
        <path d="M108.2,244.8 L108.2,244.8 L108.2,244.8 C137.9,244.8 162.8,239.3 182.1,228.4 L182.1,228.4 L182.1,174.9 L108.2,199.5 L108.2,244.8 L108.2,244.8 Z" fill="#00ACD7"></path>
        <path d="M108.2,144.8 L108.2,144.8 L182.1,120.2 L182.1,65.5 C162.8,54.5 137.9,49 108.2,49 L108.2,49 L108.2,144.8 L108.2,144.8 Z" fill="#00ACD7"></path>
        <path d="M24.2,229.5 L24.2,229.5 C31.3,233.1 42.5,238.7 50.1,241.1 L50.1,241.1 L50.1,145.8 L24.3,158.1 L24.2,229.5 L24.2,229.5 Z" fill="#00ACD7"></path>
        <path d="M24.3,136.8 L24.3,136.8 L50.1,124.5 L50.1,67.2 C42.6,64.8 31.3,59.2 24.3,55.6 L24.3,55.6 L24.3,136.8 L24.3,136.8 Z" fill="#00ACD7"></path>
        <path d="M0.1,146.3 L0.1,146.3 L0.1,93.5 C0.1,68.5 11.5,45.2 34.2,27 L34.2,27 L34.2,173 C11.7,155 0.1,131.3 0.1,106.3 L0.1,106.3 L0.1,146.3 L0.1,146.3 Z" fill="#00ACD7"></path>
        <path d="M108.2,244.8 L108.2,244.8 L108.2,244.8 C78.5,244.8 53.7,239.3 34.3,228.3 L34.3,228.3 L34.3,174.9 L108.2,199.5 L108.2,244.8 L108.2,244.8 Z" fill="#00ACD7"></path>
        <path d="M108.2,144.8 L108.2,144.8 L34.3,120.2 L34.3,65.5 C53.6,54.5 78.4,49 108.2,49 L108.2,49 L108.2,144.8 L108.2,144.8 Z" fill="#00ACD7"></path>
        <path d="M192.1,229.5 L192.1,229.5 C185.1,233.1 173.9,238.7 166.3,241.1 L166.3,241.1 L166.3,145.8 L192.1,158.1 L192.1,229.5 L192.1,229.5 Z" fill="#00ACD7"></path>
        <path d="M192.1,136.8 L192.1,136.8 L166.3,124.5 L166.3,67.2 C173.8,64.8 185.1,59.2 192.1,55.6 L192.1,55.6 L192.1,136.8 L192.1,136.8 Z" fill="#00ACD7"></path>
        <path d="M216.3,146.3 L216.3,146.3 L216.3,93.5 C216.3,68.5 204.9,45.2 182.2,27 L182.2,27 L182.2,173 C204.7,155 216.3,131.3 216.3,106.3 L216.3,106.3 L216.3,146.3 L216.3,146.3 Z" fill="#00ACD7"></path>
        <g transform="translate(134.512000, 32.372000)">
            <path d="M18.2,8.1 C15.9,8.1 14,6.2 14,3.9 C14,1.6 15.9,-0.3 18.2,-0.3 C20.5,-0.3 22.4,1.6 22.4,3.9 C22.4,6.2 20.5,8.1 18.2,8.1 L18.2,8.1 Z" fill="#00ACD7"></path>
        </g>
        <g transform="translate(107.161000, 32.937000)">
            <path d="M18.2,8.1 C15.9,8.1 14,6.2 14,3.9 C14,1.6 15.9,-0.3 18.2,-0.3 C20.5,-0.3 22.4,1.6 22.4,3.9 C22.4,6.2 20.5,8.1 18.2,8.1 L18.2,8.1 Z" fill="#00ACD7"></path>
        </g>
    </g>
</svg>