<?xml version="1.0" encoding="UTF-8" standalone="no"?>
<svg width="256px" height="256px" viewBox="0 0 256 256" version="1.1" xmlns="http://www.w3.org/2000/svg" preserveAspectRatio="xMidYMid">
    <title>JavaScript</title>
    <rect fill="#F7DF1E" x="0" y="0" width="256" height="256"></rect>
    <path d="M67.311746,213.932292 L86.902654,202.076241 C90.6821079,208.777346 94.1202286,214.447137 102.367086,214.447137 C110.272203,214.447137 115.256076,211.354819 115.256076,199.326883 L115.256076,117.528787 L139.313575,117.528787 L139.313575,199.666997 C139.313575,224.58433 124.707759,235.925943 103.3984,235.925943 C84.1532952,235.925943 72.9819429,225.958603 67.3113397,213.93026" fill="#000000"></path>
    <path d="M152.380952,211.354413 L171.969422,200.0128 C177.125994,208.433981 183.827911,214.619835 195.684368,214.619835 C205.652521,214.619835 212.009041,209.635962 212.009041,202.76396 C212.009041,194.258906 205.479416,191.509124 193.853089,186.884886 L187.193378,184.48649 C169.230434,177.042159 157.243271,167.952232 157.243271,147.180223 C157.243271,128.043659 171.850922,114.867532 194.668010,114.867532 C210.404667,114.867532 221.358501,120.659996 229.071874,135.472916 L210.29554,147.640061 C206.166866,140.392380 201.699556,137.298148 194.668010,137.298148 C187.465841,137.298148 183.651509,141.285142 183.651509,147.640061 C183.651509,155.443275 187.465841,158.19311 198.06043,162.474317 L204.72014,164.872713 C225.919671,173.498021 237.906834,182.245159 237.906834,203.527308 C237.906834,226.33544 219.425863,238.473394 196.030199,238.473394 C173.328786,238.473394 159.757279,227.413854 152.381456,211.354413" fill="#000000"></path>
</svg>